<svg width="634" height="161" viewBox="0 0 634 161" fill="none" xmlns="http://www.w3.org/2000/svg">
<path d="M175.687 27.8403H157.611V77H145.453V27.8403H127.621V17.9922H175.687V27.8403ZM198.422 77.8105C191.992 77.8105 186.75 75.8382 182.698 71.8936C178.672 67.9489 176.659 62.6938 176.659 56.1284V54.9937C176.659 50.5897 177.51 46.6585 179.212 43.2002C180.915 39.7148 183.319 37.04 186.426 35.1758C189.56 33.2845 193.127 32.3389 197.125 32.3389C203.124 32.3389 207.838 34.2301 211.27 38.0127C214.728 41.7952 216.457 47.1584 216.457 54.1021V58.8843H188.534C188.912 61.7482 190.047 64.0448 191.938 65.7739C193.856 67.5031 196.274 68.3677 199.192 68.3677C203.704 68.3677 207.23 66.7331 209.77 63.4639L215.525 69.9077C213.769 72.3934 211.391 74.3387 208.392 75.7437C205.393 77.1216 202.07 77.8105 198.422 77.8105ZM197.085 41.8223C194.761 41.8223 192.87 42.6058 191.411 44.1729C189.979 45.7399 189.061 47.9824 188.655 50.9004H204.947V49.9683C204.893 47.3745 204.191 45.3752 202.84 43.9702C201.489 42.5382 199.571 41.8223 197.085 41.8223ZM239.841 46.2397L247.217 33.1494H259.74L247.258 54.6289L260.267 77H247.704L239.882 63.2207L232.101 77H219.497L232.506 54.6289L220.064 33.1494H232.627L239.841 46.2397ZM279.396 22.3691V33.1494H286.894V41.7412H279.396V63.626C279.396 65.2471 279.707 66.4089 280.328 67.1113C280.95 67.8138 282.138 68.165 283.895 68.165C285.191 68.165 286.34 68.0705 287.339 67.8813V76.7568C285.043 77.4593 282.679 77.8105 280.247 77.8105C272.034 77.8105 267.846 73.6632 267.684 65.3687V41.7412H261.28V33.1494H267.684V22.3691H279.396ZM345.456 61.5186C345.456 59.222 344.645 57.4658 343.024 56.25C341.403 55.0072 338.485 53.7103 334.27 52.3594C330.055 50.9814 326.718 49.6305 324.26 48.3066C317.559 44.6862 314.209 39.8094 314.209 33.6763C314.209 30.4881 315.101 27.6512 316.884 25.1655C318.694 22.6528 321.274 20.694 324.625 19.2891C328.002 17.8841 331.784 17.1816 335.972 17.1816C340.187 17.1816 343.943 17.9517 347.239 19.4917C350.535 21.0047 353.088 23.1527 354.898 25.9355C356.736 28.7184 357.654 31.8796 357.654 35.4189H345.496C345.496 32.7171 344.645 30.6232 342.943 29.1372C341.241 27.6242 338.85 26.8677 335.77 26.8677C332.798 26.8677 330.487 27.5026 328.839 28.7725C327.191 30.0153 326.367 31.6634 326.367 33.7168C326.367 35.6351 327.326 37.2427 329.245 38.5396C331.19 39.8364 334.04 41.0522 337.796 42.187C344.713 44.2674 349.751 46.8477 352.913 49.9277C356.074 53.0078 357.654 56.8444 357.654 61.4375C357.654 66.5439 355.722 70.5562 351.859 73.4741C347.995 76.3651 342.794 77.8105 336.256 77.8105C331.717 77.8105 327.583 76.9865 323.854 75.3384C320.126 73.6632 317.276 71.3802 315.303 68.4893C313.358 65.5983 312.385 62.248 312.385 58.4385H324.584C324.584 64.9499 328.475 68.2056 336.256 68.2056C339.147 68.2056 341.403 67.6247 343.024 66.4629C344.645 65.2741 345.456 63.626 345.456 61.5186ZM363.328 54.6694C363.328 50.3195 364.166 46.4424 365.841 43.0381C367.516 39.6338 369.921 36.9995 373.055 35.1353C376.216 33.271 379.877 32.3389 384.038 32.3389C389.955 32.3389 394.777 34.1491 398.506 37.7695C402.261 41.39 404.355 46.3073 404.788 52.5215L404.869 55.5205C404.869 62.248 402.991 67.6517 399.235 71.7314C395.48 75.7842 390.441 77.8105 384.119 77.8105C377.796 77.8105 372.744 75.7842 368.961 71.7314C365.206 67.6787 363.328 62.167 363.328 55.1963V54.6694ZM375.041 55.5205C375.041 59.6813 375.824 62.8695 377.391 65.085C378.958 67.2734 381.201 68.3677 384.119 68.3677C386.956 68.3677 389.171 67.2869 390.765 65.1255C392.359 62.937 393.156 59.4517 393.156 54.6694C393.156 50.5897 392.359 47.4285 390.765 45.186C389.171 42.9435 386.929 41.8223 384.038 41.8223C381.174 41.8223 378.958 42.9435 377.391 45.186C375.824 47.4015 375.041 50.8464 375.041 55.5205ZM438.344 72.542C435.453 76.0544 431.455 77.8105 426.348 77.8105C421.647 77.8105 418.054 76.4596 415.568 73.7578C413.109 71.056 411.853 67.0978 411.799 61.8833V33.1494H423.511V61.478C423.511 66.0441 425.592 68.3271 429.752 68.3271C433.724 68.3271 436.453 66.9492 437.939 64.1934V33.1494H449.692V77H438.668L438.344 72.542ZM469.307 33.1494L469.672 38.2153C472.806 34.2977 477.007 32.3389 482.276 32.3389C486.923 32.3389 490.381 33.7033 492.651 36.4321C494.92 39.161 496.082 43.2407 496.136 48.6714V77H484.424V48.9551C484.424 46.4694 483.883 44.6727 482.803 43.5649C481.722 42.4302 479.925 41.8628 477.413 41.8628C474.116 41.8628 471.644 43.2677 469.996 46.0776V77H458.284V33.1494H469.307ZM503.229 54.7505C503.229 47.9149 504.755 42.4707 507.808 38.418C510.888 34.3652 515.09 32.3389 520.412 32.3389C524.681 32.3389 528.207 33.9329 530.99 37.1211V14.75H542.743V77H532.165L531.598 72.3394C528.68 75.9868 524.924 77.8105 520.331 77.8105C515.171 77.8105 511.023 75.7842 507.889 71.7314C504.782 67.6517 503.229 61.9914 503.229 54.7505ZM514.941 55.6016C514.941 59.7083 515.657 62.856 517.089 65.0444C518.521 67.2329 520.601 68.3271 523.33 68.3271C526.951 68.3271 529.504 66.8006 530.99 63.7476V46.4424C529.531 43.3893 527.005 41.8628 523.411 41.8628C517.764 41.8628 514.941 46.4424 514.941 55.6016ZM575.57 64.8823C575.57 63.4504 574.854 62.3291 573.422 61.5186C572.017 60.681 569.747 59.938 566.613 59.2896C556.184 57.1011 550.97 52.6701 550.97 45.9966C550.97 42.106 552.577 38.8638 555.792 36.27C559.035 33.6493 563.263 32.3389 568.478 32.3389C574.043 32.3389 578.488 33.6493 581.811 36.27C585.161 38.8908 586.836 42.2951 586.836 46.4829H575.124C575.124 44.8078 574.584 43.4299 573.503 42.3491C572.422 41.2414 570.734 40.6875 568.437 40.6875C566.465 40.6875 564.938 41.1333 563.857 42.0249C562.777 42.9165 562.236 44.0513 562.236 45.4292C562.236 46.7261 562.844 47.7798 564.06 48.5903C565.303 49.3739 567.383 50.0628 570.301 50.6572C573.219 51.2246 575.678 51.873 577.677 52.6025C583.864 54.8721 586.958 58.8032 586.958 64.396C586.958 68.3947 585.242 71.6369 581.811 74.1226C578.38 76.5812 573.949 77.8105 568.518 77.8105C564.844 77.8105 561.574 77.1621 558.71 75.8652C555.874 74.5413 553.645 72.7446 552.023 70.4751C550.402 68.1785 549.592 65.7064 549.592 63.0586H560.696C560.804 65.139 561.574 66.7331 563.006 67.8408C564.438 68.9486 566.357 69.5024 568.761 69.5024C571.004 69.5024 572.692 69.0837 573.827 68.2461C574.989 67.3815 575.57 66.2603 575.57 64.8823Z" fill="#54575A"/>
<rect y="101" width="15" height="11" rx="5.5" fill="#999999"/>
<rect x="31" y="92" width="30" height="11" rx="5.5" transform="rotate(90 31 92)" fill="#999999"/>
<rect x="45" y="65" width="84" height="11" rx="5.5" transform="rotate(90 45 65)" fill="#999999"/>
<rect x="59" y="79" width="56" height="11" rx="5.5" transform="rotate(90 59 79)" fill="#999999"/>
<rect x="73" y="53" width="108" height="11" rx="5.5" transform="rotate(90 73 53)" fill="#999999"/>
<rect x="87" y="66" width="82" height="11" rx="5.5" transform="rotate(90 87 66)" fill="#999999"/>
<rect x="101" y="80" width="54" height="11" rx="5.5" transform="rotate(90 101 80)" fill="#999999"/>
<rect x="105" y="101" width="529" height="11" rx="5.5" fill="#999999"/>
</svg>
